<svg width="144" height="144" viewBox="0 0 144 144" fill="none" xmlns="http://www.w3.org/2000/svg">
<g filter="url(#filter0_d)">
<circle cx="72" cy="68" r="48" fill="white"/>
<circle cx="72" cy="68" r="47.5" stroke="#0E0946" stroke-opacity="0.08"/>
</g>
<path fill-rule="evenodd" clip-rule="evenodd" d="M73.0414 49.4645C71.0888 47.5118 67.923 47.5118 65.9703 49.4645C64.0177 51.4171 64.0177 54.5829 65.9703 56.5355L77.434 67.9992L65.9703 79.4628C64.0177 81.4154 64.0177 84.5812 65.9703 86.5338C67.923 88.4865 71.0888 88.4865 73.0414 86.5338L88.0406 71.5347C89.9932 69.5821 89.9932 66.4162 88.0406 64.4636L73.0414 49.4645ZM60.6247 73.6239C63.7311 73.6239 66.2494 71.1056 66.2494 67.9992C66.2494 64.8928 63.7311 62.3745 60.6247 62.3745C57.5183 62.3745 55 64.8928 55 67.9992C55 71.1056 57.5183 73.6239 60.6247 73.6239Z" fill="#4359F0"/>
<path fill-rule="evenodd" clip-rule="evenodd" d="M73.0414 49.4645C71.0888 47.5118 67.923 47.5118 65.9703 49.4645C64.0177 51.4171 64.0177 54.5829 65.9703 56.5355L77.434 67.9992L65.9703 79.4628C64.0177 81.4154 64.0177 84.5812 65.9703 86.5338C67.923 88.4865 71.0888 88.4865 73.0414 86.5338L88.0406 71.5347C89.9932 69.5821 89.9932 66.4162 88.0406 64.4636L73.0414 49.4645ZM60.6247 73.6239C63.7311 73.6239 66.2494 71.1056 66.2494 67.9992C66.2494 64.8928 63.7311 62.3745 60.6247 62.3745C57.5183 62.3745 55 64.8928 55 67.9992C55 71.1056 57.5183 73.6239 60.6247 73.6239Z" fill="url(#paint0_linear)" fill-opacity="0.64" style="mix-blend-mode:overlay"/>
<defs>
<filter id="filter0_d" x="0" y="0" width="144" height="144" filterUnits="userSpaceOnUse" color-interpolation-filters="sRGB">
<feFlood flood-opacity="0" result="BackgroundImageFix"/>
<feColorMatrix in="SourceAlpha" type="matrix" values="0 0 0 0 0 0 0 0 0 0 0 0 0 0 0 0 0 0 127 0"/>
<feOffset dy="4"/>
<feGaussianBlur stdDeviation="12"/>
<feColorMatrix type="matrix" values="0 0 0 0 0.054902 0 0 0 0 0.0352941 0 0 0 0 0.27451 0 0 0 0.08 0"/>
<feBlend mode="normal" in2="BackgroundImageFix" result="effect1_dropShadow"/>
<feBlend mode="normal" in="SourceGraphic" in2="effect1_dropShadow" result="shape"/>
</filter>
<linearGradient id="paint0_linear" x1="87.3964" y1="16.9299" x2="123.803" y2="56.2106" gradientUnits="userSpaceOnUse">
<stop stop-color="white"/>
<stop offset="1" stop-color="white" stop-opacity="0"/>
</linearGradient>
</defs>
</svg>
