<?xml version="1.0" standalone="no"?>
<!DOCTYPE svg PUBLIC "-//W3C//DTD SVG 20010904//EN"
 "http://www.w3.org/TR/2001/REC-SVG-20010904/DTD/svg10.dtd">
<svg version="1.0" xmlns="http://www.w3.org/2000/svg"
 width="654.000000pt" height="654.000000pt" viewBox="0 0 654.000000 654.000000"
 preserveAspectRatio="xMidYMid meet">
<metadata>
Created by potrace 1.11, written by Peter Selinger 2001-2013
</metadata>
<g transform="translate(0.000000,654.000000) scale(0.100000,-0.100000)"
fill="#000000" stroke="none">
<path d="M2710 6524 c-104 -24 -128 -31 -176 -55 -194 -94 -341 -259 -408
-461 -25 -75 -28 -96 -33 -213 -4 -89 -1 -127 16 -198 25 -105 73 -213 128
-285 22 -29 369 -385 771 -790 1169 -1180 1232 -1244 1232 -1251 0 -7 -155
-164 -1253 -1273 -390 -395 -728 -741 -750 -770 -58 -76 -115 -204 -135 -303
-85 -410 162 -804 565 -905 75 -19 105 -22 208 -17 178 8 311 56 435 155 49
40 75 66 1140 1142 404 408 843 852 975 985 295 298 327 333 382 418 117 180
175 389 167 606 -2 58 -5 115 -8 126 -45 212 -97 333 -201 470 -76 100 -1052
1078 -1068 1069 -6 -4 -9 -4 -5 1 10 11 -11 47 -23 40 -5 -4 -9 -3 -7 2 1 4
-121 132 -271 283 -1068 1077 -1076 1084 -1147 1126 -76 44 -152 76 -229 94
-70 17 -239 19 -305 4z"/>
<path d="M1223 4039 c-300 -40 -548 -256 -634 -551 -35 -123 -31 -362 9 -453
85 -193 132 -259 255 -358 89 -72 222 -133 332 -152 69 -13 207 -12 275 1 238
45 449 209 549 426 85 185 97 381 35 568 -101 303 -374 510 -689 523 -44 2
-103 0 -132 -4z"/>
</g>
</svg>
