<svg width="156" height="76" viewBox="0 0 156 76" fill="none" xmlns="http://www.w3.org/2000/svg">
<path fill-rule="evenodd" clip-rule="evenodd" d="M85.5474 45.3589L92.5301 31.4639H101.135L107.624 45.3589H100.359C99.8891 43.9952 98.1022 40.873 94.9988 40.1394L92.8828 45.3589H85.5474ZM98.2433 39.293H95.2809L96.9737 35.2727L98.2433 39.293Z" fill="#231F20" stroke="#231F20" stroke-width="0.3"/>
<path d="M84.2101 36.119V31.887C83.8104 31.793 83.0815 31.6472 81.953 31.5344C80.8244 31.4215 79.6254 31.3228 78.3558 31.3228H77.0862C74.2649 31.3228 72.5298 31.7318 71.5141 32.2397C70.2445 32.8745 69.7508 33.2271 68.9749 34.003C68.3542 34.6237 68.1961 35.3431 68.2696 36.0485C68.4782 37.4591 69.4238 38.1111 69.6803 38.3055C69.9594 38.5171 70.9498 39.2225 72.7837 39.6457C74.2508 39.9842 76.3545 40.304 77.2244 40.4215C77.7181 40.492 78.4234 40.8447 78.3529 41.1974C78.2449 41.7376 76.9452 41.7616 76.663 41.7616C76.3809 41.7616 75.0408 41.8322 72.7837 41.409C70.9781 41.0704 69.21 40.3275 68.5517 39.9983V44.5124C70.1317 45.0203 72.4075 45.3353 73.348 45.4294C74.8762 45.5234 78.3981 45.6269 80.2602 45.2883C82.1223 44.9497 83.3872 44.2538 83.7869 43.9482C84.5392 43.4779 86.0298 42.1848 85.9734 40.7742C85.9029 39.0109 83.6458 37.9529 83.5047 37.8823C83.3919 37.8259 82.4702 37.4591 82.0235 37.3181L80.3307 36.8949C79.3668 36.6833 78.2109 36.4475 77.9326 36.4011C77.0862 36.2601 76.2398 36.0485 76.0987 35.9779C75.9859 35.9215 75.8166 35.7663 75.8166 35.4842C75.8166 35.2864 75.9718 35.1033 76.3104 34.9905C76.7336 34.8494 78.0032 34.8494 78.4969 34.8494C78.9906 34.8494 81.0361 34.9905 82.0235 35.2726C82.8135 35.4983 83.8104 35.9309 84.2101 36.119Z" fill="#231F20" stroke="#231F20" stroke-width="0.3"/>
<path d="M111.222 36.1896H105.297V31.4639H123.001V36.1896H117.146V45.3589H111.222V36.1896Z" fill="#231F20" stroke="#231F20" stroke-width="0.3"/>
</svg>