<svg width="200" height="200" viewBox="0 0 200 200" fill="none" xmlns="http://www.w3.org/2000/svg">
<g clip-path="url(#clip0_290_173)">
<path d="M15.674 98.015C24.3305 98.015 31.348 90.9975 31.348 82.341C31.348 73.6845 24.3305 66.667 15.674 66.667C7.01749 66.667 0 73.6845 0 82.341C0 90.9975 7.01749 98.015 15.674 98.015Z" fill="#00529E"/>
<path d="M50.4699 98.015C59.1264 98.015 66.1439 90.9975 66.1439 82.341C66.1439 73.6845 59.1264 66.667 50.4699 66.667C41.8134 66.667 34.7959 73.6845 34.7959 82.341C34.7959 90.9975 41.8134 98.015 50.4699 98.015Z" fill="#00529E"/>
<path d="M15.674 132.811C24.3305 132.811 31.348 125.793 31.348 117.137C31.348 108.48 24.3305 101.463 15.674 101.463C7.01749 101.463 0 108.48 0 117.137C0 125.793 7.01749 132.811 15.674 132.811Z" fill="#00529E"/>
<path d="M50.4699 132.811C59.1264 132.811 66.1439 125.793 66.1439 117.137C66.1439 108.48 59.1264 101.463 50.4699 101.463C41.8134 101.463 34.7959 108.48 34.7959 117.137C34.7959 125.793 41.8134 132.811 50.4699 132.811Z" fill="#00529E"/>
<path fill-rule="evenodd" clip-rule="evenodd" d="M116.773 116.353L132.291 85.4756H151.413L165.833 116.353H149.688C148.644 113.323 144.673 106.385 137.777 104.754L133.074 116.353H116.773ZM144.987 102.874H138.403L142.165 93.9396L144.987 102.874Z" fill="#231F20" stroke="#231F20" stroke-width="0.3"/>
<path d="M113.8 95.8213V86.4169C112.912 86.208 111.292 85.884 108.784 85.6333C106.276 85.3824 103.612 85.1631 100.791 85.1631H97.9693C91.6998 85.1631 87.844 86.072 85.5869 87.2006C82.7655 88.6113 81.6684 89.3949 79.9442 91.1191C78.5649 92.4984 78.2135 94.0971 78.3769 95.6646C78.8404 98.7993 80.9418 100.248 81.5118 100.68C82.132 101.15 84.3329 102.718 88.4082 103.658C91.6684 104.411 96.3433 105.121 98.2764 105.382C99.3736 105.539 100.941 106.323 100.784 107.107C100.544 108.307 97.656 108.36 97.0289 108.36C96.402 108.36 93.424 108.517 88.4082 107.577C84.3958 106.824 80.4667 105.174 79.0038 104.442V114.473C82.5149 115.602 87.5722 116.302 89.6622 116.511C93.0582 116.72 100.885 116.95 105.023 116.198C109.161 115.445 111.972 113.899 112.86 113.22C114.532 112.174 117.844 109.301 117.719 106.166C117.562 102.248 112.546 99.8966 112.233 99.7398C111.982 99.6144 109.934 98.7993 108.941 98.486L105.179 97.5455C103.037 97.0753 100.469 96.5513 99.8502 96.4482C97.9693 96.1349 96.0884 95.6646 95.7749 95.5078C95.5242 95.3824 95.148 95.0375 95.148 94.4106C95.148 93.9711 95.4929 93.5642 96.2453 93.3135C97.1858 93 100.007 93 101.104 93C102.201 93 106.747 93.3135 108.941 93.9404C110.697 94.442 112.912 95.4033 113.8 95.8213Z" fill="#231F20" stroke="#231F20" stroke-width="0.3"/>
<path d="M173.827 95.9772H160.66V85.4756H200.002V95.9772H186.991V116.353H173.827V95.9772Z" fill="#231F20" stroke="#231F20" stroke-width="0.3"/>
</g>
<defs>
<clipPath id="clip0_290_173">
<rect width="200" height="200" fill="white"/>
</clipPath>
</defs>
</svg>
