<svg width="200" height="200" viewBox="0 0 200 200" fill="none" xmlns="http://www.w3.org/2000/svg">
<path d="M130.87 101.134H121.16V110.699H116.232V88.2354H121.16V97.3658H130.87V88.2354H135.798V110.699H130.87V101.134Z" fill="black"/>
<path d="M147.535 111.134C142.753 111.134 138.695 109.25 138.55 103.887H143.477C143.477 106.351 144.927 107.655 147.68 107.655C149.709 107.655 151.883 106.641 151.883 104.467C151.883 102.728 150.289 102.148 147.825 101.424L146.231 100.989C142.753 99.9743 139.13 98.525 139.13 94.612C139.13 89.5395 143.767 87.9453 148.115 87.9453C152.463 87.9453 156.231 89.5395 156.231 94.4671H151.303C151.159 92.4381 149.999 91.2786 147.68 91.2786C145.941 91.2786 144.057 92.2931 144.057 94.1772C144.057 95.7714 145.506 96.3511 148.695 97.3656L150.579 97.9453C154.492 99.1047 156.811 100.554 156.811 104.177C156.811 109.25 151.883 111.134 147.535 111.134Z" fill="black"/>
<path d="M159.565 88.2354H167.391C169.855 88.2354 170.869 88.2354 171.739 88.5252C174.492 89.1049 176.521 90.989 176.521 93.8875C176.521 96.7861 174.637 98.2354 172.029 98.96C175.072 99.5397 177.246 101.134 177.246 104.467C177.246 109.54 172.174 110.699 168.26 110.699H159.42V88.2354H159.565ZM167.391 97.6556C169.565 97.6556 171.739 97.2209 171.739 94.6122C171.739 92.2933 169.71 91.7136 167.681 91.7136H164.203V97.6556H167.391ZM167.971 107.366C170.289 107.366 172.463 106.786 172.463 104.032C172.463 101.424 170.579 100.699 168.26 100.699H164.347V107.221H167.971V107.366Z" fill="black"/>
<path d="M190.145 111.134C182.899 111.134 179.565 106.496 179.565 99.6848C179.565 92.8732 183.189 87.8008 190.29 87.8008C194.783 87.8008 199.131 89.8298 199.276 94.9022H194.203C193.913 92.7283 192.464 91.424 190.29 91.424C185.942 91.424 184.638 96.2066 184.638 99.6848C184.638 103.308 185.942 107.366 190.145 107.366C192.319 107.366 193.913 106.207 194.348 103.888H199.421C198.841 109.25 194.783 111.134 190.145 111.134Z" fill="black"/>
<path d="M80.4347 72.7275H26.8115V126.351H80.4347V72.7275Z" fill="white"/>
<path d="M80.5791 126.351L107.391 99.5391L80.5791 72.7275V126.351Z" fill="#DB0011"/>
<path d="M26.8116 126.351L0 99.5391L26.8116 72.7275V126.351Z" fill="#DB0011"/>
<path d="M80.5797 72.7275L53.6231 99.5391L26.8115 72.7275H80.5797Z" fill="#DB0011"/>
<path d="M26.8115 126.351L53.6231 99.5391L80.5797 126.351H26.8115Z" fill="#DB0011"/>
</svg>
