<svg width="200" height="200" viewBox="0 0 200 200" fill="none" xmlns="http://www.w3.org/2000/svg">
<path d="M197.751 92.5039C197.751 92.3814 197.711 92.2885 197.634 92.2272C197.554 92.1659 197.455 92.135 197.336 92.135H196.653V92.8728H197.336C197.455 92.8728 197.554 92.8432 197.634 92.7845C197.711 92.7246 197.751 92.6317 197.751 92.5039ZM198.191 92.4907C198.191 92.6969 198.141 92.8636 198.041 92.992C197.94 93.1192 197.805 93.2068 197.64 93.2555L198.172 94.303H197.655L197.151 93.301H196.653V94.303H196.212V91.7074H197.345C197.46 91.7074 197.568 91.7226 197.671 91.7522C197.772 91.7832 197.863 91.8306 197.94 91.8945C198.014 91.9584 198.076 92.0395 198.122 92.1389C198.17 92.2371 198.191 92.355 198.191 92.4907ZM199.107 93.0513C199.107 92.77 199.055 92.5072 198.957 92.2634C198.855 92.0197 198.714 91.8076 198.533 91.6277C198.355 91.4479 198.143 91.3076 197.898 91.2061C197.655 91.104 197.393 91.0546 197.113 91.0546C196.827 91.0546 196.564 91.104 196.324 91.2061C196.082 91.3076 195.872 91.4479 195.691 91.6277C195.511 91.8076 195.372 92.0197 195.27 92.2634C195.168 92.5072 195.118 92.77 195.118 93.0513C195.118 93.3366 195.168 93.6001 195.27 93.8418C195.372 94.0836 195.511 94.2944 195.691 94.4742C195.872 94.6541 196.082 94.7957 196.324 94.8959C196.564 94.9973 196.827 95.0467 197.113 95.0467C197.393 95.0467 197.655 94.9973 197.898 94.8959C198.143 94.7957 198.355 94.6541 198.533 94.4742C198.714 94.2944 198.855 94.0836 198.957 93.8418C199.055 93.6001 199.107 93.3366 199.107 93.0513ZM199.487 93.0513C199.487 93.3893 199.428 93.7035 199.307 93.9927C199.186 94.2832 199.02 94.5349 198.806 94.7476C198.595 94.9604 198.343 95.1277 198.055 95.2483C197.764 95.3695 197.451 95.4301 197.113 95.4301C196.774 95.4301 196.461 95.3695 196.172 95.2483C195.883 95.1277 195.632 94.9604 195.418 94.7476C195.207 94.5349 195.039 94.2832 194.917 93.9927C194.797 93.7035 194.737 93.3893 194.737 93.0513C194.737 92.7127 194.797 92.3991 194.917 92.1086C195.039 91.8181 195.207 91.5671 195.418 91.3537C195.632 91.1409 195.883 90.9742 196.172 90.8537C196.461 90.7325 196.774 90.6719 197.113 90.6719C197.451 90.6719 197.764 90.7325 198.055 90.8537C198.343 90.9742 198.595 91.1409 198.806 91.3537C199.02 91.5671 199.186 91.8181 199.307 92.1086C199.428 92.3991 199.487 92.7127 199.487 93.0513ZM36.2309 112.526V95.8478H39.6493V112.526H36.2309ZM33.4085 108.898L33.6033 108.773L32.7835 111.991L32.7467 112.014C32.1908 112.358 31.2559 112.812 29.7257 112.779C27.4533 112.742 25.9342 110.987 25.9342 108.418V99.0045H23.0493V95.8688H25.9342V92.4729L29.2882 90.6719V95.8688H32.7533V99.0045H29.2882V107.859C29.2882 109.155 29.7757 109.738 30.8829 109.738C31.646 109.738 32.498 109.456 33.4085 108.898ZM16.623 112.526V95.8478H20.0382V112.526H16.623ZM3.44408 104.214C3.44408 107.332 5.61908 109.575 8.62039 109.575C10.0638 109.575 11.4605 108.929 12.6632 107.7L12.7355 107.621L14.6789 109.958L14.6257 110.019C13.0118 111.923 11.0842 112.846 8.71579 112.846C6.33882 112.846 4.17105 112.051 2.59342 110.601C0.901974 109.033 0 106.822 0 104.214C0 101.598 0.901974 99.3919 2.59342 97.8267C4.17105 96.3781 6.33882 95.5843 8.71579 95.5843C11.0842 95.5843 13.0118 96.5013 14.6257 98.4077L14.6789 98.4657L12.7355 100.808L12.6632 100.733C11.4605 99.4947 10.0638 98.8458 8.62039 98.8458C5.61908 98.8458 3.44408 101.108 3.44408 104.214ZM165.44 112.532H161.541L159.957 109.643C159.291 108.437 158.53 106.914 158.213 106.279C157.928 106.914 157.04 108.532 156.406 109.675L154.789 112.532H151.093L156.198 103.898L151.441 95.8695H155.234L156.534 98.2173C157.199 99.4235 157.991 100.916 158.276 101.55C158.625 100.916 159.418 99.3287 160.051 98.1541L161.319 95.8695H165.091L160.303 103.898L165.44 112.532ZM139.57 102.661H147.801C147.643 100.375 146.316 98.4716 143.622 98.4716C141.436 98.4716 139.855 99.9947 139.57 102.661ZM151.097 103.867C151.097 104.47 151.034 105.01 151.003 105.358H139.507C139.855 108.564 141.911 109.887 143.939 109.887C145.334 109.887 146.816 109.379 147.926 108.553L149.735 110.69C148.276 112.087 146.285 112.881 143.749 112.881C139.85 112.881 136.241 109.738 136.241 104.216C136.241 98.5665 139.534 95.5204 143.844 95.5204C148.566 95.5204 151.097 99.3603 151.097 103.867ZM134.022 102.854V112.532H130.668V103.105C130.668 99.741 129.622 98.5349 127.466 98.5349C125.28 98.5349 124.31 100.09 124.31 102.788V112.532H120.957V103.105C120.957 99.741 119.955 98.5349 117.799 98.5349C115.612 98.5349 114.474 100.09 114.474 102.788V112.532H111.12V95.8695H114.474V97.4558C115.298 96.2503 116.848 95.5204 118.56 95.5204C120.811 95.5204 122.237 96.3767 123.124 97.9637C124.329 96.4723 125.628 95.5204 128.227 95.5204C132.094 95.5204 134.022 97.2694 134.022 102.854ZM104.715 107.802V105.422C103.828 104.978 102.563 104.692 100.787 104.692C98.696 104.692 97.2408 105.644 97.2408 107.167C97.2408 108.818 98.4105 109.929 100.566 109.929C102.309 109.929 103.955 108.85 104.715 107.802ZM101.487 95.5204C105.195 95.5204 108.069 97.3293 108.069 101.106V112.532H104.715V110.881C103.575 112.024 101.834 112.881 100.027 112.881C97.3329 112.881 94.0908 111.357 94.0908 107.263C94.0908 103.549 97.1112 101.868 100.883 101.868C102.436 101.868 103.797 102.09 104.715 102.502V101.264C104.715 99.4551 103.358 98.44 101.33 98.44C99.6178 98.44 98.2868 98.7569 96.9868 99.4874L95.7191 97.0118C97.3033 96.0276 99.1408 95.5204 101.487 95.5204ZM71.996 107.802V105.422C71.1085 104.978 69.8434 104.692 68.0684 104.692C65.9763 104.692 64.5204 105.644 64.5204 107.167C64.5204 108.818 65.6914 109.929 67.8467 109.929C69.5895 109.929 71.2355 108.85 71.996 107.802ZM68.7671 95.5204C72.4757 95.5204 75.3493 97.3293 75.3493 101.106V112.532H71.996V110.881C70.8546 112.024 69.1145 112.881 67.3079 112.881C64.6138 112.881 61.371 111.357 61.371 107.263C61.371 103.549 64.3914 101.868 68.1638 101.868C69.7164 101.868 71.077 102.09 71.996 102.502V101.264C71.996 99.4551 70.6382 98.44 68.6099 98.44C66.8987 98.44 65.5671 98.7569 64.2678 99.4874L62.9993 97.0118C64.5842 96.0276 66.4217 95.5204 68.7671 95.5204ZM92.0789 102.978V112.532H88.725V103.105C88.725 99.741 87.4572 98.5349 85.3013 98.5349C83.1151 98.5349 81.7546 100.09 81.7546 102.788V112.532H78.4007V95.8695H81.7546V97.4558C82.5789 96.2503 84.4092 95.5204 86.1204 95.5204C89.9868 95.5204 92.0789 97.6719 92.0789 102.978ZM52.6125 109.866C54.9579 109.866 56.598 108.088 56.598 104.565C56.598 100.375 54.8947 98.5349 52.4855 98.5349C50.9329 98.5349 49.3217 99.5823 48.4658 100.661V107.675C49.1941 108.659 50.9645 109.866 52.6125 109.866ZM53.0875 95.5204C56.6697 95.5204 59.8809 98.1225 59.8809 104.47C59.8809 110.183 56.3842 112.881 52.9296 112.881C51.25 112.881 49.4158 111.992 48.4974 110.976V112.532H45.1434V92.4729L48.4974 90.6719V97.4558C49.7013 96.3451 51.3447 95.5204 53.0875 95.5204Z" fill="#056DAE"/>
<path d="M41.9026 93.3471H37.9809C35.2993 90.5797 31.7763 89.0744 28.1874 89.0744C24.5368 89.0836 21.0756 90.5797 18.3868 93.3471H14.4736C17.4085 88.9835 22.6598 86.0605 28.1874 86.0605C33.7986 86.0586 39.0605 89.0704 41.9026 93.3471ZM190.311 101.06C191.208 101.281 192.174 101.564 193.085 101.865C194.36 102.281 194.739 103.238 194.739 104.271C194.739 106.21 193.389 109.149 191.951 110.682C191.133 111.555 190.48 111.963 189.662 111.963C189.187 111.963 188.668 111.859 188.026 111.651C187.048 111.339 185.848 110.879 185.168 110.609C185.226 111.518 185.247 111.962 185.247 113.477C185.247 115.895 182.528 116.076 180.997 116.076C179.533 116.076 177.745 115.795 176.343 115.155C174.764 114.392 174.254 113.651 174.254 111.13C174.254 110.12 174.324 109.406 174.376 108.67C173.509 109.002 172.57 109.336 171.652 109.63C169.329 110.393 168.324 107.883 167.853 106.433C167.389 105.066 167.233 103.811 167.233 102.73C167.233 100.215 168.028 99.3636 169.944 98.743C170.918 98.4314 172.16 98.1146 172.872 97.9295C172.296 97.2292 171.682 96.4453 171.119 95.662C170.771 95.2028 170.626 94.7542 170.626 94.3326C170.626 92.9327 172.062 91.7872 173.014 91.0988C174.197 90.2951 176.398 89.0737 178.378 89.0737C179.456 89.0737 180.159 89.5362 181.052 90.6804C181.659 91.4947 182.353 92.5579 182.749 93.1818C183.239 92.4143 183.801 91.5935 184.372 90.8214C184.895 90.1824 185.535 89.9183 186.187 89.9183C187.351 89.9183 188.562 90.6258 189.364 91.2002C190.464 92.0355 191.763 93.3102 192.494 94.6324C192.911 95.353 193.128 95.9446 193.128 96.5131C193.128 97.1818 192.828 97.8418 192.202 98.691C191.601 99.5072 190.791 100.502 190.311 101.06ZM187.105 100.502C187.72 100.502 188.811 100.673 189.89 100.953C189.718 99.7746 189.044 97.2608 186.59 95.5039C186.349 95.3339 186.147 95.2582 185.962 95.2582C185.599 95.2582 185.285 95.5836 185.285 95.9413C185.285 96.2733 185.52 96.6548 185.865 97.1139C186.34 97.743 187.115 98.662 187.115 99.5131C187.115 100.064 186.792 100.415 186.596 100.552C186.764 100.514 186.932 100.502 187.105 100.502ZM188.225 107.506C188.991 106.391 189.416 105.345 189.416 104.898C189.416 104.461 188.991 104.279 188.713 104.279C188.325 104.279 187.965 104.576 187.564 105.135C186.968 105.986 186.044 107.452 184.835 107.056C184.701 107.007 184.573 106.958 184.487 106.888C184.683 107.24 184.776 107.631 184.865 108.005C184.977 108.557 185.072 109.306 185.135 110.146C185.876 109.745 187.168 108.937 188.225 107.506ZM184.134 106.46C184.022 106.196 183.964 105.875 183.97 105.502C183.97 104.883 184.126 104.169 184.403 103.301C184.907 101.777 185.478 101.06 186.078 100.741C185.313 100.834 184.256 100.352 183.06 99.4947C181.746 98.5401 181.232 97.7845 181.108 97.1284C180.963 97.8721 180.162 98.7272 178.978 99.5843C177.648 100.535 176.765 100.78 176.103 100.69C176.772 101.054 177.342 102.068 177.799 103.456C178.07 104.267 178.189 104.851 178.189 105.367C178.189 105.814 178.107 106.151 177.971 106.427C178.539 105.913 179.688 105.681 181.155 105.681C182.789 105.681 183.657 106.001 184.134 106.46ZM180.674 110.963C181.362 110.963 181.592 110.626 181.592 110.249C181.592 109.742 181.091 109.474 180.302 109.238C179.306 108.935 177.617 108.521 177.617 107.256C177.617 107.121 177.637 106.993 177.676 106.889C177.395 107.186 177.042 107.387 176.703 107.579C176.224 107.868 175.537 108.176 174.81 108.501C175.601 109.318 177.641 110.963 180.674 110.963ZM174.197 103.751C174.169 102.719 174.043 100.994 175.265 100.609C175.385 100.552 175.476 100.54 175.571 100.551C175.067 100.301 174.23 99.4947 173.172 98.2858C172.657 99.3484 171.714 101.779 172.644 104.558C172.849 105.197 173.252 105.318 173.612 105.203C174.109 105.041 174.209 104.556 174.197 103.751ZM176.233 95.0342C175.885 95.2746 175.768 95.5296 175.768 95.7358C175.768 95.9492 175.937 96.436 176.528 96.436C177.379 96.436 178.516 95.6943 179.688 95.6943C180.785 95.6943 181.052 96.4762 181.091 96.5941C181.124 96.0889 181.57 95.0164 182.491 93.5764C182.165 93.5223 181.712 93.4868 181.185 93.4868C179.82 93.4868 177.991 93.7687 176.233 95.0342Z" fill="#ED1C24"/>
</svg>
