  <svg style="background: #056dae" viewBox="0 -10 50 50" version="1.1" xmlns="http://www.w3.org/2000/svg" xmlns:xlink="http://www.w3.org/1999/xlink">
    <path d="M163.144293,5.31576087 C163.144293,5.21467391 163.111184,5.13804348 163.047681,5.0875 C162.982007,5.03695652 162.900592,5.01141304 162.802352,5.01141304 L162.238421,5.01141304 L162.238421,5.6201087 L162.802352,5.6201087 C162.900592,5.6201087 162.982007,5.59565217 163.047681,5.54728261 C163.111184,5.49782609 163.144293,5.42119565 163.144293,5.31576087 Z M163.507944,5.3048913 C163.507944,5.475 163.466151,5.6125 163.384194,5.71847826 C163.300609,5.82336957 163.189342,5.89565217 163.053109,5.93586957 L163.491661,6.8 L163.065592,6.8 L162.649293,5.97336957 L162.238421,5.97336957 L162.238421,6.8 L161.87477,6.8 L161.87477,4.65869565 L162.809408,4.65869565 C162.904391,4.65869565 162.993405,4.67119565 163.078618,4.69565217 C163.162204,4.72119565 163.237105,4.76032609 163.300609,4.81304348 C163.361941,4.86576087 163.412961,4.9326087 163.450954,5.01467391 C163.490033,5.09565217 163.507944,5.19293478 163.507944,5.3048913 Z M164.262928,5.7673913 C164.262928,5.53532609 164.220592,5.31847826 164.139178,5.1173913 C164.055592,4.91630435 163.938898,4.74130435 163.789638,4.59293478 C163.642549,4.44456522 163.46778,4.32880435 163.265872,4.2451087 C163.065592,4.16086957 162.849572,4.1201087 162.618355,4.1201087 C162.382253,4.1201087 162.165691,4.16086957 161.967582,4.2451087 C161.767303,4.32880435 161.594704,4.44456522 161.445444,4.59293478 C161.296184,4.74130435 161.181661,4.91630435 161.097533,5.1173913 C161.013947,5.31847826 160.972697,5.53532609 160.972697,5.7673913 C160.972697,6.00271739 161.013947,6.2201087 161.097533,6.41956522 C161.181661,6.61902174 161.296184,6.79293478 161.445444,6.94130435 C161.594704,7.08967391 161.767303,7.20652174 161.967582,7.28913043 C162.165691,7.37282609 162.382253,7.41358696 162.618355,7.41358696 C162.849572,7.41358696 163.065592,7.37282609 163.265872,7.28913043 C163.46778,7.20652174 163.642549,7.08967391 163.789638,6.94130435 C163.938898,6.79293478 164.055592,6.61902174 164.139178,6.41956522 C164.220592,6.2201087 164.262928,6.00271739 164.262928,5.7673913 Z M164.577188,5.7673913 C164.577188,6.04619565 164.528339,6.30543478 164.427928,6.54402174 C164.328059,6.78369565 164.191826,6.99130435 164.014885,7.16684783 C163.840658,7.3423913 163.633322,7.48043478 163.395049,7.5798913 C163.155148,7.6798913 162.896793,7.7298913 162.618355,7.7298913 C162.338832,7.7298913 162.079934,7.6798913 161.842204,7.5798913 C161.603388,7.48043478 161.396053,7.3423913 161.219655,7.16684783 C161.045428,6.99130435 160.907023,6.78369565 160.806612,6.54402174 C160.707286,6.30543478 160.657895,6.04619565 160.657895,5.7673913 C160.657895,5.48804348 160.707286,5.22934783 160.806612,4.98967391 C160.907023,4.75 161.045428,4.54293478 161.219655,4.36684783 C161.396053,4.19130435 161.603388,4.05380435 161.842204,3.95434783 C162.079934,3.85434783 162.338832,3.80434783 162.618355,3.80434783 C162.896793,3.80434783 163.155148,3.85434783 163.395049,3.95434783 C163.633322,4.05380435 163.840658,4.19130435 164.014885,4.36684783 C164.191826,4.54293478 164.328059,4.75 164.427928,4.98967391 C164.528339,5.22934783 164.577188,5.48804348 164.577188,5.7673913 Z M29.8905099,21.8342391 L29.8905099,8.07445652 L32.7107072,8.07445652 L32.7107072,21.8342391 L29.8905099,21.8342391 Z M27.5620559,18.8407609 L27.7227138,18.7380435 L27.0464309,21.3923913 L27.0160362,21.411413 C26.5574013,21.6951087 25.7861349,22.0695652 24.5236678,22.0423913 C22.6489638,22.0119565 21.3957237,20.5641304 21.3957237,18.4451087 L21.3957237,10.6788043 L19.0157072,10.6788043 L19.0157072,8.09184783 L21.3957237,8.09184783 L21.3957237,5.29021739 L24.1627303,3.80434783 L24.1627303,8.09184783 L27.0214638,8.09184783 L27.0214638,10.6788043 L24.1627303,10.6788043 L24.1627303,17.9836957 C24.1627303,19.0532609 24.5649178,19.5342391 25.4783882,19.5342391 C26.1079934,19.5342391 26.8108717,19.301087 27.5620559,18.8407609 Z M13.7139967,21.8342391 L13.7139967,8.07445652 L16.5314803,8.07445652 L16.5314803,21.8342391 L13.7139967,21.8342391 Z M2.84136513,14.9766304 C2.84136513,17.548913 4.63574013,19.3994565 7.11182566,19.3994565 C8.30264803,19.3994565 9.45493421,18.8663043 10.4471053,17.8527174 L10.5068092,17.7875 L12.1101316,19.7152174 L12.0661678,19.7657609 C10.7347697,21.336413 9.14447368,22.0983696 7.19052632,22.0983696 C5.22952303,22.0983696 3.44111842,21.4418478 2.13957237,20.2456522 C0.744128289,18.9521739 0,17.1282609 0,14.9766304 C0,12.8184783 0.744128289,10.9983696 2.13957237,9.70706522 C3.44111842,8.51195652 5.22952303,7.85706522 7.19052632,7.85706522 C9.14447368,7.85706522 10.7347697,8.61358696 12.0661678,10.186413 L12.1101316,10.2342391 L10.5068092,12.1663043 L10.4471053,12.1048913 C9.45493421,11.0831522 8.30264803,10.5478261 7.11182566,10.5478261 C4.63574013,10.5478261 2.84136513,12.4141304 2.84136513,14.9766304 Z M136.488109,21.838587 L133.271151,21.838587 L131.964178,19.4554348 C131.414901,18.4608696 130.787467,17.2038043 130.525855,16.6798913 C130.290296,17.2038043 129.558109,18.5391304 129.034885,19.4820652 L127.701316,21.838587 L124.65153,21.838587 L128.863372,14.7163043 L124.939194,8.0923913 L128.067681,8.0923913 L129.140181,10.0293478 C129.688914,11.0244565 130.342944,12.2554348 130.577961,12.7788043 C130.865625,12.2554348 131.519655,10.9461957 132.041793,9.97717391 L133.08824,8.0923913 L136.200444,8.0923913 L132.249671,14.7163043 L136.488109,21.838587 Z M115.145576,13.6951087 L121.935543,13.6951087 C121.80528,11.8097826 120.710526,10.2391304 118.488454,10.2391304 C116.684309,10.2391304 115.380592,11.4956522 115.145576,13.6951087 Z M124.655329,14.6902174 C124.655329,15.1875 124.602681,15.6331522 124.577171,15.9206522 L115.092928,15.9206522 C115.380592,18.5652174 117.076184,19.6565217 118.749523,19.6565217 C119.900181,19.6565217 121.123026,19.2375 122.038668,18.5565217 L123.531266,20.3195652 C122.327961,21.4717391 120.685016,22.1266304 118.592664,22.1266304 C115.37625,22.1266304 112.399194,19.5342391 112.399194,14.9782609 C112.399194,10.3173913 115.115181,7.80434783 118.671365,7.80434783 C122.567319,7.80434783 124.655329,10.9722826 124.655329,14.6902174 Z M110.567911,13.8548913 L110.567911,21.838587 L107.800905,21.838587 L107.800905,14.0619565 C107.800905,11.286413 106.937911,10.2913043 105.159819,10.2913043 C103.355674,10.2913043 102.555641,11.5744565 102.555641,13.8 L102.555641,21.838587 L99.7891776,21.838587 L99.7891776,14.0619565 C99.7891776,11.286413 98.9625493,10.2913043 97.1844572,10.2913043 C95.3803125,10.2913043 94.4413322,11.5744565 94.4413322,13.8 L94.4413322,21.838587 L91.6743257,21.838587 L91.6743257,8.0923913 L94.4413322,8.0923913 L94.4413322,9.40108696 C95.1208717,8.40652174 96.3996217,7.80434783 97.8118914,7.80434783 C99.6686842,7.80434783 100.845395,8.51086957 101.577582,9.8201087 C102.571382,8.58967391 103.643339,7.80434783 105.787253,7.80434783 C108.977615,7.80434783 110.567911,9.24728261 110.567911,13.8548913 Z M86.3899836,17.9369565 L86.3899836,15.9733696 C85.6577961,15.6065217 84.6146053,15.3711957 83.1496875,15.3711957 C81.4242434,15.3711957 80.2236513,16.1565217 80.2236513,17.4130435 C80.2236513,18.775 81.1886842,19.6913043 82.9667763,19.6913043 C84.4050987,19.6913043 85.7630921,18.801087 86.3899836,17.9369565 Z M83.7266447,7.80434783 C86.7862007,7.80434783 89.1569901,9.29673913 89.1569901,12.4125 L89.1569901,21.838587 L86.3899836,21.838587 L86.3899836,20.4771739 C85.449375,21.4195652 84.0126809,22.1266304 82.5222533,22.1266304 C80.2996382,22.1266304 77.6249013,20.8695652 77.6249013,17.4918478 C77.6249013,14.4282609 80.116727,13.0407609 83.2283882,13.0407609 C84.5093092,13.0407609 85.6322862,13.223913 86.3899836,13.5641304 L86.3899836,12.5429348 C86.3899836,11.0505435 85.2702632,10.2130435 83.5969243,10.2130435 C82.1846546,10.2130435 81.0866447,10.4744565 80.0141447,11.0771739 L78.9682401,9.03478261 C80.2752138,8.22282609 81.7911513,7.80434783 83.7266447,7.80434783 Z M59.3967434,17.9369565 L59.3967434,15.9733696 C58.6645559,15.6065217 57.6208224,15.3711957 56.1564474,15.3711957 C54.4304605,15.3711957 53.2293257,16.1565217 53.2293257,17.4130435 C53.2293257,18.775 54.1954441,19.6913043 55.9735362,19.6913043 C57.4113158,19.6913043 58.7693092,18.801087 59.3967434,17.9369565 Z M56.7328618,7.80434783 C59.7924178,7.80434783 62.1632072,9.29673913 62.1632072,12.4125 L62.1632072,21.838587 L59.3967434,21.838587 L59.3967434,20.4771739 C58.4550493,21.4195652 57.0194408,22.1266304 55.5290132,22.1266304 C53.306398,22.1266304 50.6311184,20.8695652 50.6311184,17.4918478 C50.6311184,14.4282609 53.1229441,13.0407609 56.235148,13.0407609 C57.5160691,13.0407609 58.6385033,13.223913 59.3967434,13.5641304 L59.3967434,12.5429348 C59.3967434,11.0505435 58.2764803,10.2130435 56.6031414,10.2130435 C55.1914145,10.2130435 54.0928618,10.4744565 53.0209046,11.0771739 L51.9744572,9.03478261 C53.2819737,8.22282609 54.7979112,7.80434783 56.7328618,7.80434783 Z M75.9651316,13.9570652 L75.9651316,21.838587 L73.198125,21.838587 L73.198125,14.0619565 C73.198125,11.286413 72.1522204,10.2913043 70.3735855,10.2913043 C68.5699836,10.2913043 67.4475493,11.5744565 67.4475493,13.8 L67.4475493,21.838587 L64.6805428,21.838587 L64.6805428,8.0923913 L67.4475493,8.0923913 L67.4475493,9.40108696 C68.1276316,8.40652174 69.6375987,7.80434783 71.0493257,7.80434783 C74.2391447,7.80434783 75.9651316,9.57934783 75.9651316,13.9570652 Z M43.4053125,19.6391304 C45.3402632,19.6391304 46.6933717,18.1722826 46.6933717,15.2663043 C46.6933717,11.8097826 45.2881579,10.2913043 43.3005592,10.2913043 C42.0196382,10.2913043 40.6904112,11.1554348 39.9842763,12.0456522 L39.9842763,17.8320652 C40.5851151,18.6440217 42.0456908,19.6391304 43.4053125,19.6391304 Z M43.7971875,7.80434783 C46.7525329,7.80434783 49.4017599,9.95108696 49.4017599,15.1875 C49.4017599,19.901087 46.5169737,22.1266304 43.6669243,22.1266304 C42.28125,22.1266304 40.7680263,21.3934783 40.0103289,20.5554348 L40.0103289,21.838587 L37.2433224,21.838587 L37.2433224,5.29021739 L40.0103289,3.80434783 L40.0103289,9.40108696 C41.0035855,8.48478261 42.3594079,7.80434783 43.7971875,7.80434783 Z" fill="#ffff"></path>
    <path d="M34.5696711,6.01141385 L31.3342599,6.01141385 C29.1219572,3.72826167 26.2154605,2.48641385 23.2546875,2.48641385 C20.2428947,2.49402254 17.3874178,3.72826167 15.1691447,6.01141385 L11.9407895,6.01141385 C14.3620559,2.41141385 18.6943914,8.01904049e-07 23.2546875,8.01904049e-07 C27.8839145,-0.00162963288 32.2249342,2.48315298 34.5696711,6.01141385 M157.006727,12.3744573 C157.747056,12.5565225 158.543832,12.7902182 159.295016,13.0385878 C160.346891,13.382066 160.659523,14.1717399 160.659523,15.0233704 C160.659523,16.6233704 159.545773,19.0478269 158.359836,20.3125008 C157.684638,21.0326095 157.146217,21.369566 156.47102,21.369566 C156.079145,21.369566 155.650905,21.2836965 155.121711,21.1125008 C154.314622,20.8543486 153.324622,20.4750008 152.763947,20.2521747 C152.811168,21.0021747 152.828536,21.3690225 152.828536,22.6184791 C152.828536,24.6130443 150.585839,24.7625008 149.322286,24.7625008 C148.115181,24.7625008 146.639951,24.5309791 145.483322,24.0032617 C144.180148,23.3733704 143.759507,22.7625008 143.759507,20.682066 C143.759507,19.8489138 143.817039,19.2597834 143.859918,18.6527182 C143.145099,18.9266312 142.370576,19.2021747 141.612878,19.4451095 C139.696382,20.0744573 138.867039,18.0032617 138.478421,16.8076095 C138.095773,15.6793486 137.967138,14.6440225 137.967138,13.7521747 C137.967138,11.6771747 138.622796,10.9750008 140.203865,10.4630443 C141.007155,10.2059791 142.031891,9.94456602 142.619704,9.79184863 C142.144243,9.21413124 141.637845,8.56739211 141.17324,7.92119645 C140.886118,7.54239211 140.766168,7.17228341 140.766168,6.82445732 C140.766168,5.66956602 141.951563,4.72445732 142.736398,4.15652254 C143.712286,3.49347906 145.528372,2.48587037 147.161546,2.48587037 C148.051135,2.48587037 148.631349,2.86739211 149.367878,3.81141385 C149.868849,4.48315298 150.440921,5.36032689 150.767664,5.8750008 C151.172566,5.24184863 151.635543,4.56467471 152.107204,3.92771819 C152.538701,3.40054428 153.066809,3.1826095 153.604145,3.1826095 C154.564293,3.1826095 155.564063,3.76630515 156.225148,4.24021819 C157.132648,4.92934863 158.204605,5.98097906 158.807615,7.07173993 C159.151727,7.66630515 159.330296,8.15434863 159.330296,8.62337037 C159.330296,9.1750008 159.082796,9.71956602 158.566628,10.4201095 C158.070543,11.0934791 157.402401,11.9141312 157.006727,12.3744573 Z M154.361842,11.9141312 C154.868783,11.9141312 155.769227,12.0554356 156.659359,12.2864138 C156.517155,11.3141312 155.961365,9.24021819 153.936859,7.79076167 C153.738207,7.65054428 153.571036,7.58804428 153.419062,7.58804428 C153.119457,7.58804428 152.860559,7.85652254 152.860559,8.15163124 C152.860559,8.42554428 153.054326,8.74021819 153.338734,9.11902254 C153.730609,9.63804428 154.369984,10.3961965 154.369984,11.0983704 C154.369984,11.5527182 154.103487,11.8423921 153.941743,11.9554356 C154.080691,11.9244573 154.218553,11.9141312 154.361842,11.9141312 Z M155.285625,17.6923921 C155.917944,16.7728269 156.268569,15.9097834 156.268569,15.5413051 C156.268569,15.1804356 155.917944,15.0304356 155.688355,15.0304356 C155.368125,15.0304356 155.071234,15.2755443 154.740148,15.7364138 C154.248947,16.4385878 153.486365,17.6478269 152.488766,17.3211965 C152.378043,17.2809791 152.272747,17.2407617 152.202188,17.1826095 C152.363931,17.4728269 152.440461,17.795653 152.513734,18.1038051 C152.606003,18.5597834 152.684704,19.1777182 152.736266,19.8701095 C153.347961,19.5396747 154.413405,18.8733704 155.285625,17.6923921 Z M151.910724,16.8298921 C151.818454,16.6119573 151.770691,16.3472834 151.775033,16.0391312 C151.775033,15.5288051 151.904211,14.9396747 152.132171,14.2233704 C152.54847,12.9657617 153.019046,12.3744573 153.514046,12.1114138 C152.883355,12.1880443 152.011135,11.7902182 151.024934,11.083153 C149.940493,10.295653 149.516053,9.67228341 149.414013,9.13097906 C149.294605,9.74456602 148.634063,10.4500008 147.657089,11.157066 C146.559622,11.9413051 145.831234,12.1434791 145.285214,12.0690225 C145.837204,12.369566 146.307237,13.2059791 146.683914,14.3516312 C146.907533,15.0201095 147.005773,15.5021747 147.005773,15.9277182 C147.005773,16.2967399 146.937928,16.5750008 146.826118,16.8021747 C147.294523,16.3782617 148.24273,16.1869573 149.452549,16.1869573 C150.800773,16.1869573 151.51722,16.4505443 151.910724,16.8298921 Z M149.056332,20.544566 C149.624063,20.544566 149.813487,20.2668486 149.813487,19.9554356 C149.813487,19.5375008 149.399901,19.3163051 148.749128,19.1217399 C147.927385,18.8711965 146.534112,18.5298921 146.534112,17.4858704 C146.534112,17.3750008 146.550938,17.269566 146.582418,17.1836965 C146.351201,17.4282617 146.059737,17.594566 145.779671,17.7527182 C145.384539,17.9907617 144.817895,18.2451095 144.218684,18.5135878 C144.870543,19.1875008 146.554194,20.544566 149.056332,20.544566 Z M143.712286,14.594566 C143.68949,13.7434791 143.585822,12.3201095 144.593734,12.0027182 C144.693059,11.9554356 144.767961,11.945653 144.846118,11.9543486 C144.430362,11.7483704 143.739967,11.083153 142.867204,10.0858704 C142.44222,10.9625008 141.663898,12.9679356 142.431365,15.2603269 C142.600164,15.7875008 142.932878,15.8875008 143.22977,15.7923921 C143.640099,15.6592399 143.722599,15.2586965 143.712286,14.594566 Z M145.392681,7.40326167 C145.105016,7.60163124 145.008947,7.81195732 145.008947,7.98206602 C145.008947,8.15815298 145.148438,8.55978341 145.635839,8.55978341 C146.337632,8.55978341 147.275526,7.94782689 148.24273,7.94782689 C149.148059,7.94782689 149.367878,8.59293558 149.399901,8.69021819 C149.427039,8.27337037 149.795576,7.38858776 150.555444,6.20054428 C150.286234,6.15597906 149.912812,6.12663124 149.478059,6.12663124 C148.351283,6.12663124 146.842401,6.35923993 145.392681,7.40326167 Z" fill="#ED1C24"></path>
  </svg>