<svg width="200" height="200" viewBox="0 0 200 200" fill="none" xmlns="http://www.w3.org/2000/svg">
<g clip-path="url(#clip0_290_126)">
<path d="M10.7 78.5V89.45C12.75 86.95 15.85 85.55 19.05 85.6C22.2 85.6 24.7 86.5 26.45 88.35C28.25 90.15 29.15 92.65 29.15 95.85V113.35H15.8V97.35C15.85 96.5 15.6 95.6 15.1 94.9C14.6 94.3 13.9 93.95 13.1 94C12.2 94.05 11.3 94.45 10.65 95.1V113.45H0V78.5H10.7Z" fill="#231E1F"/>
<path d="M71.1994 85.8496L74.4994 93.1996L77.6994 85.8496H91.4494L76.5494 121.15H61.1494L66.8494 107.75L57.1494 85.8496H71.1994V85.8496Z" fill="#231E1F"/>
<path d="M85.6501 107.6C85.6001 106.55 85.8001 105.45 86.2001 104.45C86.6001 103.5 87.1501 102.6 87.9001 101.85C88.6001 101.1 89.4501 100.55 90.4001 100.15C91.3501 99.7499 92.3501 99.5499 93.4001 99.5499C95.4501 99.4999 97.4501 100.35 98.8501 101.9C100.3 103.55 101.05 105.65 101 107.85C101 110.9 99.8001 113.7 97.4501 116.3C95.1501 118.85 92.0001 120.5 88.6001 121.05L88.2001 120.75C88.7001 120.45 89.2001 120.1 89.6001 119.65C90.0001 119.25 90.4001 118.75 90.7001 118.25C91.0001 117.75 91.2501 117.2 91.4501 116.6C91.6501 116.05 91.7501 115.45 91.8001 114.85C87.7001 113.7 85.6501 111.25 85.6501 107.6Z" fill="#231E1F"/>
<path d="M59.9005 100.551C59.9505 97.7505 59.3005 95.0005 58.0005 92.5005C56.8005 90.2005 54.9505 88.3505 52.7005 87.1505C50.3505 85.9005 47.7005 85.2505 45.0505 85.3005C42.4505 85.2505 39.8505 85.9005 37.5005 87.1005C35.3505 88.2505 33.6005 89.9505 32.4005 92.1005C31.1505 94.3005 30.5505 96.8005 30.6005 99.3505C30.6005 100.701 30.7505 102.101 31.1005 103.451C31.4005 104.701 31.9005 105.901 32.6005 107.001C33.2505 108.101 34.0505 109.051 35.0005 109.901C35.9505 110.801 37.0505 111.501 38.2005 112.101C39.4505 112.701 40.7505 113.151 42.1005 113.451C43.6005 113.751 45.1005 113.901 46.6005 113.901C49.2005 113.951 51.8005 113.451 54.2005 112.451C56.5005 111.401 58.4505 109.801 59.9505 107.801V102.951C59.5005 103.451 59.0005 103.851 58.4505 104.201C57.9005 104.601 57.2505 104.901 56.6505 105.151C56.0005 105.401 55.3005 105.601 54.6005 105.751C53.8505 105.901 53.1005 105.951 52.4005 105.951C51.6505 105.951 50.8505 105.851 50.1005 105.651C49.4005 105.451 48.7505 105.151 48.1505 104.751C47.5505 104.351 47.0505 103.901 46.6005 103.351C46.1505 102.801 45.8005 102.151 45.5505 101.501H60.0505L59.9005 100.551ZM35.7005 96.6005V96.3505C35.6505 95.4505 35.9505 94.5505 36.5005 93.8005C36.9505 93.1505 37.7005 92.8005 38.5005 92.8005C39.3505 92.7505 40.1505 93.1505 40.6505 93.8505C41.2505 94.6505 41.5505 95.6505 41.5005 96.6505L35.7005 96.6005ZM44.9005 96.6005V96.4005C44.8505 95.7505 45.1505 95.0505 45.6005 94.6005C46.0505 94.1005 46.7005 93.8505 47.3505 93.8505C48.0505 93.8005 48.7505 94.1005 49.2505 94.6005C49.7505 95.1505 50.0005 95.8505 50.0005 96.6005H44.9005Z" fill="#231E1F"/>
<path d="M123.841 106.51C123.841 111.21 121.341 114.41 117.291 114.41C114.241 114.41 112.841 112.61 112.391 111.71V114.11H110.041V92.21H112.441V101.11C113.191 99.46 114.991 98.41 117.191 98.41C120.991 98.36 123.841 101.51 123.841 106.51ZM121.491 106.66C121.491 103.26 119.991 100.41 116.841 100.41C113.891 100.41 112.391 102.66 112.391 106.31C112.391 110.21 114.041 112.41 116.941 112.41C119.991 112.41 121.491 110.06 121.491 106.66Z" fill="#231E1F"/>
<path d="M141.591 103.36V114.11H139.291V111.26C138.241 113.26 136.141 114.51 133.891 114.46C131.091 114.46 128.841 112.96 128.841 110.06C128.841 107.26 130.791 106.06 134.941 105.46C137.891 105.01 139.291 104.71 139.291 103.06C139.291 101.51 137.841 100.36 135.791 100.36C133.291 100.36 132.041 101.71 131.891 104.01H129.541C129.641 101.01 131.491 98.4102 135.841 98.4102C139.091 98.4102 141.591 100.06 141.591 103.36ZM139.291 107.26V105.96C138.041 106.56 136.741 106.96 135.391 107.11C132.741 107.61 131.191 108.26 131.191 110.01C131.191 111.76 132.691 112.46 134.391 112.46C136.991 112.51 139.291 110.61 139.291 107.26Z" fill="#231E1F"/>
<path d="M160.991 104.26V114.11H158.541V105.11C158.541 101.86 157.691 100.36 155.591 100.36C152.891 100.36 150.241 103.71 150.241 109.31V114.11H147.841V98.7101H150.241V103.56C151.141 100.71 152.891 98.4101 156.191 98.4101C159.191 98.3601 160.991 100.26 160.991 104.26Z" fill="#231E1F"/>
<path d="M173.741 100.41C170.641 100.41 168.791 103.16 168.791 106.41C168.791 109.91 170.841 112.41 173.991 112.41C176.541 112.41 177.791 110.91 178.191 108.96H180.541C180.041 112.21 177.741 114.41 173.991 114.41C169.141 114.41 166.441 110.81 166.441 106.41C166.441 102.01 169.241 98.4102 173.741 98.4102C177.391 98.4102 180.041 100.71 180.391 104.11H178.041C177.791 101.91 175.941 100.31 173.741 100.41Z" fill="#231E1F"/>
<path d="M185.441 106.41C185.441 101.71 188.291 98.4102 192.741 98.4102C197.191 98.4102 200.041 101.76 200.041 106.41C200.041 111.06 197.191 114.41 192.741 114.41C188.291 114.41 185.441 111.11 185.441 106.41ZM197.691 106.41C197.691 103.01 195.941 100.36 192.741 100.36C189.541 100.36 187.791 102.96 187.791 106.41C187.791 109.81 189.541 112.41 192.741 112.41C195.941 112.41 197.691 109.81 197.691 106.41Z" fill="#231E1F"/>
</g>
<defs>
<clipPath id="clip0_290_126">
<rect width="200" height="200" fill="white"/>
</clipPath>
</defs>
</svg>
